PathFileType	4	(X/Y/Z)	C:/Users/beibeiliu/ov580/test_trc\sequence.39_training_dense_right.trc
DataRate	CameraRate	NumFrames	NumMarkers	Units	OrigDataRate	OrigDataStartFrame	OrigNumFrames
120	120	14	19	mm	120	51	400
Frame#	Time	ThumbCMC			ThumbMCP			ThumbIP			ThumbTip			IndexMCP			IndexPIP			IndexTip			MiddleMCP			MiddlePIP			MiddleTip			RingMCP			RingPIP			RingTip			PinkyMCP			PinkyPIP			PinkyTip			BackHand1			BackHand2			BackHand3	
		X0	Y0	Z0	X1	Y1	Z1	X2	Y2	Z2	X3	Y3	Z3	X4	Y4	Z4	X5	Y5	Z5	X6	Y6	Z6	X7	Y7	Z7	X8	Y8	Z8	X9	Y9	Z9	X10	Y10	Z10	X11	Y11	Z11	X12	Y12	Z12	X13	Y13	Z13	X14	Y14	Z14	X15	Y15	Z15	X16	Y16	Z16	X17	Y17	Z17	X18	Y18	Z18	
50	0.416667	176.704	-27.594	52.0234	170.603	-43.9817	25.6122	181.138	-46.4634	4.90375	204.257	-45.3854	-11.115	180.975	-22.9548	-14.0217	186.28	-49.0661	-25.3445	192.652	-68.5158	-5.1978	199.9	-23.7692	-19.9104	203.663	-49.4363	-27.5311	212.615	-68.9174	-2.12648	222.044	-22.3749	-13.0793	220.819	-48.5151	-17.6013	220.227	-63.6471	9.54894	234.661	-21.6494	-1.70188	230.448	-44.3223	-9.15167	228.61	-60.3081	9.67592	216.465	2.58837	29.4858	217.28	5.87376	56.1666	194.321	0.636756	47.3883	
51	0.425	176.384	-30.5135	56.2284	173.25	-42.6046	25.1157	183.799	-46.2566	6.11486	204.579	-45.0349	-9.70282	182.566	-22.5438	-10.7718	188.073	-46.6322	-24.2843	191.507	-70.147	-3.82996	200.309	-21.5727	-15.3598	204.202	-48.9203	-27.9924	207.775	-71.3265	-1.42246	222.513	-21.4945	-11.4621	218.319	-51.5885	-16.2871	220.458	-64.2787	8.93763	233.993	-21.7615	-2.75684	235.8	-42.7346	-8.91637	225.912	-61.8089	10.97	216.406	2.45796	30.3143	220.503	5.3445	58.1217	190.883	0.537193	47.3094	
52	0.433333	176.69	-30.8017	55.6023	172.93	-46.9114	26.7057	185.907	-46.4841	5.75694	202.981	-47.6886	-9.89665	183.184	-26.9674	-12.9186	186.739	-52.5775	-22.9528	197.938	-70.2284	0.484674	200.982	-23.3303	-18.0918	203.145	-50.2527	-26.7721	213.004	-69.7344	-1.19409	218.243	-23.267	-13.0667	220.287	-49.3557	-16.4715	221.086	-64.0511	8.92412	232.885	-19.7747	-1.07722	232.384	-42.8768	-9.14529	226.499	-60.2833	8.44553	217.575	3.34296	32.2291	215.552	3.47695	61.7087	192.583	-1.69203	47.3917	
53	0.441667	178.212	-31.6806	56.6422	172.245	-48.5873	27.9287	183.975	-49.9883	7.58614	206.361	-47.0565	-10.6507	182.707	-26.5262	-9.56681	190.341	-49.315	-22.6222	199.114	-69.1824	-2.58984	198.392	-24.2044	-15.4501	207.775	-54.2504	-25.517	215.298	-70.3572	-0.967192	221.096	-23.7216	-13.6463	223.184	-49.2872	-16.7443	218.26	-64.2167	9.48229	235.943	-19.3098	-0.235361	237.544	-42.09	-8.52739	226.963	-60.4322	6.6617	217.237	3.4304	35.0071	215.869	4.37673	60.3748	189.026	-1.36422	47.5606	
54	0.45	181.755	-31.4905	56.8412	175.354	-47.377	31.3807	185.684	-48.5789	6.22543	202.857	-49.3823	-7.10695	185.029	-29.5115	-12.7207	191.34	-55.9028	-20.4738	199.133	-71.7335	-0.677269	200.427	-26.4609	-16.9118	208.382	-56.0078	-23.6499	212.322	-71.9905	-0.778263	218.761	-25.6732	-12.5514	225.422	-50.1026	-15.9234	222.141	-65.2743	6.82469	235.092	-21.9883	-2.9467	234.9	-45.1937	-6.82623	229.453	-63.0285	13.2913	214.831	1.00342	32.127	217.725	4.11975	60.6082	189.163	-1.66731	45.0142	
55	0.458333	182.726	-31.4739	56.4622	176.21	-45.4943	29.5031	184.071	-50.3592	9.11523	205.592	-47.3622	-6.22764	183.168	-31.1891	-10.3703	193.318	-54.9712	-18.9345	200.301	-72.1202	0.685077	201.74	-27.2309	-15.2037	208.622	-55.1447	-22.6363	215.588	-72.1097	5.55663	222.421	-23.7421	-9.65869	220.758	-53.7765	-13.0061	225.587	-66.5602	10.7465	235.119	-21.0387	0.145585	237.877	-46.6737	-5.46337	227.469	-62.0175	11.4911	216.28	2.50304	32.1118	217.602	3.02346	61.4552	187.825	-3.98541	46.5842	
56	0.466667	181.728	-31.6298	57.2823	175.087	-47.8992	30.7936	184.336	-48.604	9.01609	203.219	-48.5212	-6.24248	185.175	-31.9393	-9.79955	190.339	-55.1028	-18.1876	200.107	-73.6113	5.38845	201.366	-27.8322	-13.7261	210.573	-53.9293	-21.5616	215.479	-71.9705	5.44544	218.403	-25.2144	-8.17399	226.168	-53.2645	-12.4885	226.963	-65.6265	11.2927	232.797	-22.1975	0.155426	238.37	-46.1748	-4.59043	232.84	-61.1508	15.8009	217.156	1.63888	35.0539	216.138	4.23329	61.0025	190.867	-3.83722	46.8602	
57	0.475	180.804	-33.5584	59.4956	173.111	-48.0113	30.0061	182.629	-50.8081	5.69075	200.57	-49.2507	-3.37157	181.565	-32.8722	-7.4124	192.884	-57.6481	-17.2612	202.152	-72.4403	7.92969	203.21	-29.2594	-12.8041	210.644	-59.0326	-18.7257	217.912	-71.8216	7.77999	221.339	-25.4953	-7.34767	225.112	-53.0944	-11.1876	221.939	-66.3114	14.7401	236.416	-23.511	-1.31008	234.04	-46.2699	-3.08089	229.061	-62.2276	20.3248	212.424	0.809428	35.9055	215.526	3.57238	58.8549	190.584	-4.55894	47.8719	
58	0.483333	180.575	-33.2364	58.1065	171.78	-50.2516	34.6468	178.063	-53.5816	10.7464	201.423	-49.7378	-2.77681	183.667	-33.4658	-6.29124	191.057	-60.8686	-15.6304	200.191	-74.0513	7.85119	202.037	-29.2432	-10.6302	214.569	-59.5716	-16.4626	215.515	-73.3509	13.1506	216.984	-27.7244	-6.89359	227.421	-54.8452	-6.75021	224.305	-65.6249	16.2364	236.058	-23.1433	0.995653	236.657	-47.8787	-0.146814	231.429	-62.182	21.3088	215.556	0.0484074	37.2607	215.643	3.37581	64.6936	189.602	-5.48458	50.8208	
59	0.491667	181.979	-34.0356	59.8194	168.105	-51.1297	35.8385	180.391	-50.4187	12.6376	197.072	-52.5026	-1.32486	180.96	-36.1572	-6.22419	193.793	-58.845	-16.0229	205.861	-73.0472	7.84213	203.537	-33.5776	-12.4233	214.857	-60.9787	-14.8811	219.7	-72.5255	12.7935	221.327	-28.3964	-7.50879	229.233	-55.8024	-5.85196	228.936	-64.4709	19.659	236.876	-21.8528	2.63408	239.983	-47.0566	1.39198	231.589	-58.4476	21.5521	212.789	-1.0209	32.8211	214.183	3.30602	64.1143	189.814	-5.644	51.4052	
60	0.5	179.292	-35.928	62.4051	170.363	-48.3799	38.2291	173.114	-54.2463	14.328	190.947	-57.8781	-5.04042	185.723	-36.8118	-9.78015	196.145	-63.8423	-14.2707	204.358	-75.7271	11.7964	202.55	-32.7505	-10.2216	212.812	-61.7127	-14.11	221.467	-70.2028	20.3639	224.269	-31.9788	-8.67482	230.4	-56.0369	-3.22346	229.313	-63.5932	23.9878	239.45	-23.2971	3.47202	236.101	-49.7912	4.48151	235.328	-59.415	24.9267	214.497	0.727442	33.6584	214.292	3.44929	62.0815	189.007	-6.40255	47.1173	
61	0.508333	179.431	-35.7281	57.4048	166.712	-53.604	38.9849	169.634	-59.2351	13.1995	185.046	-60.887	-3.53937	184.662	-37.4037	-6.81027	201.065	-63.433	-13.7086	203.861	-75.2359	11.1436	208.316	-33.4252	-9.29729	215.78	-65.1915	-11.2217	218.377	-72.1255	19.4293	222.206	-33.5313	-6.14649	229.364	-57.5069	-3.38557	229.215	-65.3857	24.5505	237.266	-28.1036	2.03084	241.05	-49.3525	4.9914	229.552	-59.7465	30.7081	215.689	-1.9726	32.2211	214.53	1.7675	60.4914	186.94	-9.46423	47.6967	
62	0.516667	178.671	-37.968	57.6156	170.688	-55.0836	36.7755	171.706	-61.2881	9.90265	181.082	-66.6516	-7.72267	188.913	-38.8322	-7.05104	201.742	-62.7686	-13.3871	204.978	-75.3612	15.9586	209.935	-39.0377	-13.4283	217.352	-66.2223	-9.57261	220.18	-69.6263	24.6427	226.675	-33.3442	-4.42339	228.813	-62.7024	1.8937	226.919	-64.0449	31.639	241.972	-27.5521	4.33049	239.411	-53.4338	8.76384	227.064	-57.3423	31.8029	214.955	-3.12965	34.9779	215.997	1.56218	62.6604	190.024	-11.1592	45.5916	
63	0.525	179.059	-41.3404	54.6364	173.654	-57.9345	33.447	172.742	-65.4825	10.4371	181.788	-71.4897	-11.954	190.767	-41.3465	-7.85079	199.505	-70.5223	-10.292	207.864	-72.1201	19.171	210.715	-39.4583	-10.2183	219.48	-65.9326	-8.09085	220.131	-67.0559	29.2114	227.711	-34.8718	-3.19337	232.955	-61.3243	4.33029	227.808	-62.4893	30.861	241.921	-29.6846	5.32742	238.748	-52.6013	8.83726	228.652	-57.3485	33.6134	214.607	-2.95658	31.3041	214.456	-1.43722	62.9725	187.948	-13.903	45.4436	
